<mxfile host="Electron" modified="2024-02-24T05:34:15.337Z" agent="Mozilla/5.0 (Macintosh; Intel Mac OS X 10_15_7) AppleWebKit/537.36 (KHTML, like Gecko) draw.io/21.2.1 Chrome/112.0.5615.87 Electron/24.1.2 Safari/537.36" etag="W4m7UgFoucukBC4zatkM" version="21.2.1" type="device">
  <diagram name="Page-1" id="fQTT04jtLbltRWYmsFxR">
    <mxGraphModel dx="1315" dy="769" grid="1" gridSize="10" guides="1" tooltips="1" connect="1" arrows="1" fold="1" page="1" pageScale="1" pageWidth="827" pageHeight="1169" math="0" shadow="0">
      <root>
        <mxCell id="0" />
        <mxCell id="1" parent="0" />
        <mxCell id="lvKxzo2WqN8d6Ct04ij5-1" value="&lt;font style=&quot;font-size: 29px;&quot;&gt;Worker A&lt;/font&gt;" style="rounded=0;whiteSpace=wrap;html=1;glass=0;sketch=1;curveFitting=1;jiggle=2;fontFamily=Corethan;" vertex="1" parent="1">
          <mxGeometry x="285" y="350" width="120" height="60" as="geometry" />
        </mxCell>
        <mxCell id="lvKxzo2WqN8d6Ct04ij5-2" value="&lt;font style=&quot;font-size: 29px;&quot;&gt;Worker B&lt;/font&gt;" style="rounded=0;whiteSpace=wrap;html=1;glass=0;sketch=1;curveFitting=1;jiggle=2;fontFamily=Corethan;" vertex="1" parent="1">
          <mxGeometry x="433.5" y="350" width="120" height="60" as="geometry" />
        </mxCell>
        <mxCell id="lvKxzo2WqN8d6Ct04ij5-3" value="&lt;font style=&quot;font-size: 29px;&quot;&gt;Worker C&lt;/font&gt;" style="rounded=0;whiteSpace=wrap;html=1;glass=0;sketch=1;curveFitting=1;jiggle=2;fontFamily=Corethan;" vertex="1" parent="1">
          <mxGeometry x="580" y="350" width="120" height="60" as="geometry" />
        </mxCell>
        <mxCell id="lvKxzo2WqN8d6Ct04ij5-5" style="edgeStyle=orthogonalEdgeStyle;orthogonalLoop=1;jettySize=auto;html=1;exitX=0.25;exitY=1;exitDx=0;exitDy=0;curved=1;sketch=1;curveFitting=1;jiggle=2;startArrow=classic;startFill=1;" edge="1" parent="1" source="lvKxzo2WqN8d6Ct04ij5-4" target="lvKxzo2WqN8d6Ct04ij5-1">
          <mxGeometry relative="1" as="geometry" />
        </mxCell>
        <mxCell id="lvKxzo2WqN8d6Ct04ij5-6" style="edgeStyle=orthogonalEdgeStyle;orthogonalLoop=1;jettySize=auto;html=1;exitX=0.5;exitY=1;exitDx=0;exitDy=0;entryX=0.5;entryY=0;entryDx=0;entryDy=0;curved=1;sketch=1;curveFitting=1;jiggle=2;startArrow=classic;startFill=1;" edge="1" parent="1" source="lvKxzo2WqN8d6Ct04ij5-4" target="lvKxzo2WqN8d6Ct04ij5-2">
          <mxGeometry relative="1" as="geometry" />
        </mxCell>
        <mxCell id="lvKxzo2WqN8d6Ct04ij5-10" style="edgeStyle=orthogonalEdgeStyle;orthogonalLoop=1;jettySize=auto;html=1;exitX=0.5;exitY=0;exitDx=0;exitDy=0;entryX=0.5;entryY=1;entryDx=0;entryDy=0;sketch=1;curveFitting=1;jiggle=2;curved=1;startArrow=classic;startFill=1;" edge="1" parent="1" source="lvKxzo2WqN8d6Ct04ij5-16" target="lvKxzo2WqN8d6Ct04ij5-8">
          <mxGeometry relative="1" as="geometry" />
        </mxCell>
        <mxCell id="lvKxzo2WqN8d6Ct04ij5-17" style="edgeStyle=orthogonalEdgeStyle;orthogonalLoop=1;jettySize=auto;html=1;exitX=0;exitY=0.5;exitDx=0;exitDy=0;entryX=0.5;entryY=0;entryDx=0;entryDy=0;entryPerimeter=0;sketch=1;curveFitting=1;jiggle=2;curved=1;" edge="1" parent="1" source="lvKxzo2WqN8d6Ct04ij5-4" target="lvKxzo2WqN8d6Ct04ij5-15">
          <mxGeometry relative="1" as="geometry" />
        </mxCell>
        <mxCell id="lvKxzo2WqN8d6Ct04ij5-21" style="edgeStyle=orthogonalEdgeStyle;orthogonalLoop=1;jettySize=auto;html=1;exitX=0.75;exitY=1;exitDx=0;exitDy=0;entryX=0.5;entryY=0;entryDx=0;entryDy=0;curved=1;sketch=1;curveFitting=1;jiggle=2;startArrow=classic;startFill=1;" edge="1" parent="1" source="lvKxzo2WqN8d6Ct04ij5-4" target="lvKxzo2WqN8d6Ct04ij5-3">
          <mxGeometry relative="1" as="geometry" />
        </mxCell>
        <mxCell id="lvKxzo2WqN8d6Ct04ij5-4" value="&lt;font style=&quot;font-size: 29px;&quot;&gt;Orchestrator&lt;/font&gt;" style="rounded=0;whiteSpace=wrap;html=1;glass=0;sketch=1;curveFitting=1;jiggle=2;fontFamily=Corethan;" vertex="1" parent="1">
          <mxGeometry x="390" y="210" width="207" height="60" as="geometry" />
        </mxCell>
        <mxCell id="lvKxzo2WqN8d6Ct04ij5-8" value="&lt;font style=&quot;font-size: 29px;&quot;&gt;Client&lt;/font&gt;" style="rounded=0;whiteSpace=wrap;html=1;glass=0;sketch=1;curveFitting=1;jiggle=2;fontFamily=Corethan;" vertex="1" parent="1">
          <mxGeometry x="483.5" y="20" width="120" height="60" as="geometry" />
        </mxCell>
        <mxCell id="lvKxzo2WqN8d6Ct04ij5-11" value="" style="group;sketch=1;curveFitting=1;jiggle=2;" vertex="1" connectable="0" parent="1">
          <mxGeometry x="105" y="210" width="110" height="60" as="geometry" />
        </mxCell>
        <mxCell id="lvKxzo2WqN8d6Ct04ij5-12" value="" style="shape=cylinder3;whiteSpace=wrap;html=1;boundedLbl=1;backgroundOutline=1;size=15;rotation=90;sketch=1;curveFitting=1;jiggle=2;" vertex="1" parent="lvKxzo2WqN8d6Ct04ij5-11">
          <mxGeometry x="-5" y="5" width="60" height="50" as="geometry" />
        </mxCell>
        <mxCell id="lvKxzo2WqN8d6Ct04ij5-13" value="" style="shape=cylinder3;whiteSpace=wrap;html=1;boundedLbl=1;backgroundOutline=1;size=15;rotation=90;sketch=1;curveFitting=1;jiggle=2;" vertex="1" parent="lvKxzo2WqN8d6Ct04ij5-11">
          <mxGeometry x="15" y="5" width="60" height="50" as="geometry" />
        </mxCell>
        <mxCell id="lvKxzo2WqN8d6Ct04ij5-14" value="" style="shape=cylinder3;whiteSpace=wrap;html=1;boundedLbl=1;backgroundOutline=1;size=15;rotation=90;sketch=1;curveFitting=1;jiggle=2;" vertex="1" parent="lvKxzo2WqN8d6Ct04ij5-11">
          <mxGeometry x="35" y="5" width="60" height="50" as="geometry" />
        </mxCell>
        <mxCell id="lvKxzo2WqN8d6Ct04ij5-15" value="" style="shape=cylinder3;whiteSpace=wrap;html=1;boundedLbl=1;backgroundOutline=1;size=15;rotation=90;sketch=1;curveFitting=1;jiggle=2;" vertex="1" parent="lvKxzo2WqN8d6Ct04ij5-11">
          <mxGeometry x="55" y="5" width="60" height="50" as="geometry" />
        </mxCell>
        <mxCell id="lvKxzo2WqN8d6Ct04ij5-16" value="&lt;font style=&quot;font-size: 20px;&quot;&gt;API&lt;br style=&quot;font-size: 20px;&quot;&gt;&lt;/font&gt;" style="rounded=0;whiteSpace=wrap;html=1;glass=0;sketch=1;curveFitting=1;jiggle=2;fontFamily=Corethan;fontSize=20;" vertex="1" parent="1">
          <mxGeometry x="500" y="180" width="87" height="40" as="geometry" />
        </mxCell>
        <mxCell id="lvKxzo2WqN8d6Ct04ij5-19" value="poll" style="text;html=1;strokeColor=none;fillColor=none;align=center;verticalAlign=middle;whiteSpace=wrap;rounded=0;fontStyle=1;fontFamily=Courier New;sketch=1;curveFitting=1;jiggle=2;" vertex="1" parent="1">
          <mxGeometry x="280" y="210" width="60" height="30" as="geometry" />
        </mxCell>
        <mxCell id="lvKxzo2WqN8d6Ct04ij5-20" value="Kafka&lt;br&gt;(datasource)" style="text;html=1;strokeColor=none;fillColor=none;align=center;verticalAlign=middle;whiteSpace=wrap;rounded=0;fontFamily=Corethan;fontSize=22;" vertex="1" parent="1">
          <mxGeometry x="110" y="280" width="100" height="60" as="geometry" />
        </mxCell>
        <mxCell id="lvKxzo2WqN8d6Ct04ij5-26" style="edgeStyle=orthogonalEdgeStyle;orthogonalLoop=1;jettySize=auto;html=1;exitX=1;exitY=1;exitDx=0;exitDy=0;entryX=0;entryY=0;entryDx=0;entryDy=0;endArrow=none;endFill=0;curved=1;sketch=1;curveFitting=1;jiggle=2;" edge="1" parent="1" source="lvKxzo2WqN8d6Ct04ij5-22" target="lvKxzo2WqN8d6Ct04ij5-23">
          <mxGeometry relative="1" as="geometry" />
        </mxCell>
        <mxCell id="lvKxzo2WqN8d6Ct04ij5-22" value="" style="ellipse;whiteSpace=wrap;html=1;aspect=fixed;" vertex="1" parent="1">
          <mxGeometry x="310" y="420" width="20" height="20" as="geometry" />
        </mxCell>
        <mxCell id="lvKxzo2WqN8d6Ct04ij5-60" style="edgeStyle=orthogonalEdgeStyle;orthogonalLoop=1;jettySize=auto;html=1;exitX=1;exitY=1;exitDx=0;exitDy=0;entryX=0.5;entryY=0;entryDx=0;entryDy=0;sketch=1;curveFitting=1;jiggle=2;endArrow=none;endFill=0;curved=1;" edge="1" parent="1" source="lvKxzo2WqN8d6Ct04ij5-23" target="lvKxzo2WqN8d6Ct04ij5-25">
          <mxGeometry relative="1" as="geometry" />
        </mxCell>
        <mxCell id="lvKxzo2WqN8d6Ct04ij5-23" value="" style="ellipse;whiteSpace=wrap;html=1;aspect=fixed;" vertex="1" parent="1">
          <mxGeometry x="330" y="450" width="20" height="20" as="geometry" />
        </mxCell>
        <mxCell id="lvKxzo2WqN8d6Ct04ij5-27" style="edgeStyle=orthogonalEdgeStyle;orthogonalLoop=1;jettySize=auto;html=1;exitX=0.5;exitY=1;exitDx=0;exitDy=0;entryX=1;entryY=0;entryDx=0;entryDy=0;endArrow=none;endFill=0;sketch=1;curveFitting=1;jiggle=2;curved=1;" edge="1" parent="1" source="lvKxzo2WqN8d6Ct04ij5-24" target="lvKxzo2WqN8d6Ct04ij5-23">
          <mxGeometry relative="1" as="geometry" />
        </mxCell>
        <mxCell id="lvKxzo2WqN8d6Ct04ij5-24" value="" style="ellipse;whiteSpace=wrap;html=1;aspect=fixed;" vertex="1" parent="1">
          <mxGeometry x="350" y="420" width="20" height="20" as="geometry" />
        </mxCell>
        <mxCell id="lvKxzo2WqN8d6Ct04ij5-25" value="" style="ellipse;whiteSpace=wrap;html=1;aspect=fixed;rotation=-15;" vertex="1" parent="1">
          <mxGeometry x="350" y="480" width="20" height="20" as="geometry" />
        </mxCell>
        <mxCell id="lvKxzo2WqN8d6Ct04ij5-32" style="edgeStyle=orthogonalEdgeStyle;orthogonalLoop=1;jettySize=auto;html=1;exitX=1;exitY=1;exitDx=0;exitDy=0;entryX=0;entryY=0;entryDx=0;entryDy=0;endArrow=none;endFill=0;curved=1;sketch=1;curveFitting=1;jiggle=2;" edge="1" parent="1" source="lvKxzo2WqN8d6Ct04ij5-33" target="lvKxzo2WqN8d6Ct04ij5-34">
          <mxGeometry relative="1" as="geometry" />
        </mxCell>
        <mxCell id="lvKxzo2WqN8d6Ct04ij5-33" value="" style="ellipse;whiteSpace=wrap;html=1;aspect=fixed;" vertex="1" parent="1">
          <mxGeometry x="450" y="480" width="20" height="20" as="geometry" />
        </mxCell>
        <mxCell id="lvKxzo2WqN8d6Ct04ij5-34" value="" style="ellipse;whiteSpace=wrap;html=1;aspect=fixed;" vertex="1" parent="1">
          <mxGeometry x="483.5" y="450" width="20" height="20" as="geometry" />
        </mxCell>
        <mxCell id="lvKxzo2WqN8d6Ct04ij5-35" style="edgeStyle=orthogonalEdgeStyle;orthogonalLoop=1;jettySize=auto;html=1;exitX=0.5;exitY=1;exitDx=0;exitDy=0;entryX=1;entryY=0;entryDx=0;entryDy=0;endArrow=none;endFill=0;sketch=1;curveFitting=1;jiggle=2;curved=1;" edge="1" parent="1" source="lvKxzo2WqN8d6Ct04ij5-36" target="lvKxzo2WqN8d6Ct04ij5-34">
          <mxGeometry relative="1" as="geometry" />
        </mxCell>
        <mxCell id="lvKxzo2WqN8d6Ct04ij5-36" value="" style="ellipse;whiteSpace=wrap;html=1;aspect=fixed;" vertex="1" parent="1">
          <mxGeometry x="503.5" y="420" width="20" height="20" as="geometry" />
        </mxCell>
        <mxCell id="lvKxzo2WqN8d6Ct04ij5-39" style="edgeStyle=orthogonalEdgeStyle;orthogonalLoop=1;jettySize=auto;html=1;exitX=1;exitY=1;exitDx=0;exitDy=0;entryX=0;entryY=0;entryDx=0;entryDy=0;endArrow=none;endFill=0;curved=1;sketch=1;curveFitting=1;jiggle=2;" edge="1" parent="1" source="lvKxzo2WqN8d6Ct04ij5-40" target="lvKxzo2WqN8d6Ct04ij5-41">
          <mxGeometry relative="1" as="geometry" />
        </mxCell>
        <mxCell id="lvKxzo2WqN8d6Ct04ij5-40" value="" style="ellipse;whiteSpace=wrap;html=1;aspect=fixed;" vertex="1" parent="1">
          <mxGeometry x="605" y="420" width="20" height="20" as="geometry" />
        </mxCell>
        <mxCell id="lvKxzo2WqN8d6Ct04ij5-41" value="" style="ellipse;whiteSpace=wrap;html=1;aspect=fixed;" vertex="1" parent="1">
          <mxGeometry x="625" y="450" width="20" height="20" as="geometry" />
        </mxCell>
        <mxCell id="lvKxzo2WqN8d6Ct04ij5-42" style="edgeStyle=orthogonalEdgeStyle;orthogonalLoop=1;jettySize=auto;html=1;exitX=0.5;exitY=1;exitDx=0;exitDy=0;entryX=1;entryY=0;entryDx=0;entryDy=0;endArrow=none;endFill=0;sketch=1;curveFitting=1;jiggle=2;curved=1;" edge="1" parent="1" source="lvKxzo2WqN8d6Ct04ij5-43" target="lvKxzo2WqN8d6Ct04ij5-41">
          <mxGeometry relative="1" as="geometry" />
        </mxCell>
        <mxCell id="lvKxzo2WqN8d6Ct04ij5-55" style="edgeStyle=orthogonalEdgeStyle;orthogonalLoop=1;jettySize=auto;html=1;exitX=1;exitY=1;exitDx=0;exitDy=0;entryX=0;entryY=0;entryDx=0;entryDy=0;curved=1;sketch=1;curveFitting=1;jiggle=2;endArrow=none;endFill=0;" edge="1" parent="1" source="lvKxzo2WqN8d6Ct04ij5-43" target="lvKxzo2WqN8d6Ct04ij5-53">
          <mxGeometry relative="1" as="geometry" />
        </mxCell>
        <mxCell id="lvKxzo2WqN8d6Ct04ij5-43" value="" style="ellipse;whiteSpace=wrap;html=1;aspect=fixed;" vertex="1" parent="1">
          <mxGeometry x="645" y="420" width="20" height="20" as="geometry" />
        </mxCell>
        <mxCell id="lvKxzo2WqN8d6Ct04ij5-44" style="edgeStyle=orthogonalEdgeStyle;orthogonalLoop=1;jettySize=auto;html=1;exitX=1;exitY=0;exitDx=0;exitDy=0;entryX=0;entryY=1;entryDx=0;entryDy=0;endArrow=none;endFill=0;curved=1;sketch=1;curveFitting=1;jiggle=2;" edge="1" parent="1" source="lvKxzo2WqN8d6Ct04ij5-45" target="lvKxzo2WqN8d6Ct04ij5-41">
          <mxGeometry relative="1" as="geometry" />
        </mxCell>
        <mxCell id="lvKxzo2WqN8d6Ct04ij5-58" style="edgeStyle=orthogonalEdgeStyle;orthogonalLoop=1;jettySize=auto;html=1;exitX=1;exitY=0.5;exitDx=0;exitDy=0;entryX=0;entryY=1;entryDx=0;entryDy=0;curved=1;sketch=1;curveFitting=1;jiggle=2;endArrow=none;endFill=0;" edge="1" parent="1" source="lvKxzo2WqN8d6Ct04ij5-45" target="lvKxzo2WqN8d6Ct04ij5-56">
          <mxGeometry relative="1" as="geometry" />
        </mxCell>
        <mxCell id="lvKxzo2WqN8d6Ct04ij5-45" value="" style="ellipse;whiteSpace=wrap;html=1;aspect=fixed;" vertex="1" parent="1">
          <mxGeometry x="605" y="480" width="20" height="20" as="geometry" />
        </mxCell>
        <mxCell id="lvKxzo2WqN8d6Ct04ij5-53" value="" style="ellipse;whiteSpace=wrap;html=1;aspect=fixed;" vertex="1" parent="1">
          <mxGeometry x="665" y="450" width="20" height="20" as="geometry" />
        </mxCell>
        <mxCell id="lvKxzo2WqN8d6Ct04ij5-57" style="edgeStyle=orthogonalEdgeStyle;orthogonalLoop=1;jettySize=auto;html=1;exitX=1;exitY=0;exitDx=0;exitDy=0;entryX=0.5;entryY=1;entryDx=0;entryDy=0;curved=1;sketch=1;curveFitting=1;jiggle=2;endArrow=none;endFill=0;" edge="1" parent="1" source="lvKxzo2WqN8d6Ct04ij5-56" target="lvKxzo2WqN8d6Ct04ij5-53">
          <mxGeometry relative="1" as="geometry" />
        </mxCell>
        <mxCell id="lvKxzo2WqN8d6Ct04ij5-56" value="" style="ellipse;whiteSpace=wrap;html=1;aspect=fixed;" vertex="1" parent="1">
          <mxGeometry x="645" y="480" width="20" height="20" as="geometry" />
        </mxCell>
        <mxCell id="lvKxzo2WqN8d6Ct04ij5-61" value="search" style="text;html=1;strokeColor=none;fillColor=none;align=left;verticalAlign=middle;whiteSpace=wrap;rounded=0;fontStyle=1;fontFamily=Courier New;sketch=1;curveFitting=1;jiggle=2;" vertex="1" parent="1">
          <mxGeometry x="553.5" y="120" width="56.5" height="30" as="geometry" />
        </mxCell>
      </root>
    </mxGraphModel>
  </diagram>
</mxfile>
